<?xml version="1.0" encoding="utf-8"?>
<!-- Generator: Adobe Illustrator 19.1.0, SVG Export Plug-In . SVG Version: 6.00 Build 0)  -->
<svg version="1.1" id="Layer_1" xmlns="http://www.w3.org/2000/svg" xmlns:xlink="http://www.w3.org/1999/xlink" x="0px" y="0px"
	 viewBox="-243 245 24 24" style="enable-background:new -243 245 24 24;" xml:space="preserve">
<style type="text/css">
	.st0{fill:none;}
	.st1{fill:#FFFFFF;}
</style>
<path class="st0" d="M-243,245h24v24h-24V245z"/>
<path class="st1" d="M-237,264c0,1.1,0.9,2,2,2h8c1.1,0,2-0.9,2-2v-12h-12V264z M-234.5,256.9l1.4-1.4l2.1,2.1l2.1-2.1l1.4,1.4
	l-2.1,2.1l2.1,2.1l-1.4,1.4l-2.1-2.1l-2.1,2.1l-1.4-1.4l2.1-2.1L-234.5,256.9z M-227.5,249l-1-1h-5l-1,1h-3.5v2h14v-2H-227.5z"/>
<path class="st0" d="M-243,245h24v24h-24V245z"/>
</svg>
