<?xml version="1.0" encoding="utf-8"?>
<!-- Generator: Adobe Illustrator 19.1.0, SVG Export Plug-In . SVG Version: 6.00 Build 0)  -->
<svg version="1.1" id="Layer_1" xmlns="http://www.w3.org/2000/svg" xmlns:xlink="http://www.w3.org/1999/xlink" x="0px" y="0px"
	 viewBox="-243 245 24 24" style="enable-background:new -243 245 24 24;" xml:space="preserve">
<style type="text/css">
	.st0{fill:none;}
	.st1{fill:#FFFFFF;}
</style>
<path class="st0" d="M-243,245h24v24h-24V245z"/>
<path class="st1" d="M-230,248c-5,0-9,4-9,9h-3l3.9,3.9l0.1,0.1l4-4h-3c0-3.9,3.1-7,7-7s7,3.1,7,7s-3.1,7-7,7
	c-1.9,0-3.7-0.8-4.9-2.1l-1.4,1.4c1.6,1.6,3.9,2.6,6.4,2.6c5,0,9-4,9-9S-225,248-230,248z M-231,253v5l4.3,2.5l0.7-1.2l-3.5-2.1V253
	H-231z"/>
</svg>
