<?xml version="1.0" encoding="utf-8"?>
<!-- Generator: Adobe Illustrator 19.1.0, SVG Export Plug-In . SVG Version: 6.00 Build 0)  -->
<svg version="1.1" id="Layer_1" xmlns="http://www.w3.org/2000/svg" xmlns:xlink="http://www.w3.org/1999/xlink" x="0px" y="0px"
	 viewBox="-243 245 24 24" style="enable-background:new -243 245 24 24;" xml:space="preserve">
<style type="text/css">
	.st0{fill:none;}
	.st1{fill:#FFFFFF;}
</style>
<path class="st0" d="M-243,245h24v24h-24V245z"/>
<path class="st1" d="M-230,248h-2v10h2V248z M-225.2,250.2l-1.4,1.4c1.6,1.3,2.6,3.2,2.6,5.4c0,3.9-3.1,7-7,7s-7-3.1-7-7
	c0-2.2,1-4.1,2.6-5.4l-1.4-1.4c-1.9,1.7-3.2,4.1-3.2,6.8c0,5,4,9,9,9s9-4,9-9C-222,254.3-223.2,251.8-225.2,250.2z"/>
</svg>
